<?xml version="1.0" encoding="UTF-8"?>
<svg id="Calque_2" data-name="Calque 2" xmlns="http://www.w3.org/2000/svg" viewBox="0 0 222.6 325.8">
  <defs>
    <style>
      .cls-1 {
        fill: #43cba3;
      }
    </style>
  </defs>
  <g id="Calque_1-2" data-name="Calque 1">
    <g>
      <path class="cls-1" d="M124.8,13.4v203.3c0,7.4-6,13.4-13.4,13.4s-13.4-6-13.4-13.4V13.4c0-7.4,6-13.4,13.4-13.4s13.4,6,13.4,13.4Z"/>
      <path class="cls-1" d="M173.7,56.6v159c0,34.4-28,62.3-62.4,62.3s-62.3-28-62.3-62.3V56.6c0-7.4,6-13.4,13.4-13.4s13.4,6,13.4,13.4v159c0,19.6,15.9,35.6,35.6,35.6s35.6-16,35.6-35.6V56.6c0-7.4,6-13.4,13.4-13.4,7.3,0,13.3,6,13.3,13.4Z"/>
      <path class="cls-1" d="M222.6,142.9v71.6c0,60.3-49,110.2-109.3,111.3h-2c-29.5,0-57.3-11.7-78.3-32.8C12,271.9,0,242.2,0,211.5v-101.7c0-7.3,5.5-13.5,12.6-13.9h.7c3.5,0,6.8,1.3,9.3,3.6,2.7,2.5,4.2,6.1,4.2,9.7v103.8c0,46.7,37.4,85.2,83.3,85.9,22.8.4,44.3-8.3,60.5-24.3,16.3-16,25.2-37.4,25.2-60.2v-59.3c0-7.4,5.5-13.5,12.5-13.9h12.6c1,0,1.7.8,1.7,1.7Z"/>
    </g>
  </g>
</svg>